<svg width="64" height="24" viewBox="0 0 64 24" fill="none" xmlns="http://www.w3.org/2000/svg">
<path d="M18.7614 19V4.45455H23.8466C24.8598 4.45455 25.6955 4.62973 26.3537 4.98011C27.0118 5.32576 27.5019 5.79214 27.8239 6.37926C28.1458 6.96165 28.3068 7.60795 28.3068 8.31818C28.3068 8.94318 28.1955 9.45928 27.973 9.86648C27.7552 10.2737 27.4664 10.5956 27.1065 10.8324C26.7514 11.0691 26.3655 11.2443 25.9489 11.358V11.5C26.3939 11.5284 26.8414 11.6847 27.2912 11.9688C27.741 12.2528 28.1174 12.66 28.4205 13.1903C28.7235 13.7206 28.875 14.3693 28.875 15.1364C28.875 15.8655 28.7093 16.5213 28.3778 17.1037C28.0464 17.6861 27.5232 18.1477 26.8082 18.4886C26.0933 18.8295 25.1629 19 24.017 19H18.7614ZM20.5227 17.4375H24.017C25.1676 17.4375 25.9844 17.215 26.4673 16.7699C26.955 16.3201 27.1989 15.7756 27.1989 15.1364C27.1989 14.6439 27.0734 14.1894 26.8224 13.7727C26.5715 13.3513 26.214 13.0152 25.75 12.7642C25.286 12.5085 24.7367 12.3807 24.1023 12.3807H20.5227V17.4375ZM20.5227 10.8466H23.7898C24.3201 10.8466 24.7983 10.7424 25.2244 10.5341C25.6553 10.3258 25.9962 10.0322 26.2472 9.65341C26.5028 9.27462 26.6307 8.82955 26.6307 8.31818C26.6307 7.67898 26.4081 7.13684 25.9631 6.69176C25.518 6.24195 24.8125 6.01705 23.8466 6.01705H20.5227V10.8466ZM34.7521 19.2557C34.0608 19.2557 33.4335 19.1255 32.87 18.8651C32.3066 18.5999 31.8591 18.2188 31.5277 17.7216C31.1963 17.2197 31.0305 16.6136 31.0305 15.9034C31.0305 15.2784 31.1536 14.7718 31.3999 14.3835C31.6461 13.9905 31.9751 13.6828 32.3871 13.4602C32.799 13.2377 33.2536 13.072 33.7507 12.9631C34.2526 12.8494 34.7569 12.7595 35.2635 12.6932C35.9264 12.608 36.4638 12.544 36.8757 12.5014C37.2924 12.4541 37.5954 12.3759 37.7848 12.267C37.9789 12.1581 38.076 11.9687 38.076 11.6989V11.642C38.076 10.9413 37.8842 10.3968 37.5007 10.0085C37.1219 9.62027 36.5466 9.42614 35.7749 9.42614C34.9747 9.42614 34.3473 9.60133 33.8928 9.9517C33.4382 10.3021 33.1186 10.6761 32.9339 11.0739L31.343 10.5057C31.6271 9.8428 32.0059 9.3267 32.4794 8.95739C32.9576 8.58333 33.4785 8.32292 34.0419 8.17614C34.6101 8.02462 35.1688 7.94886 35.718 7.94886C36.0684 7.94886 36.4709 7.99148 36.9254 8.0767C37.3847 8.1572 37.8274 8.32528 38.2536 8.58097C38.6844 8.83665 39.0419 9.22254 39.326 9.73864C39.6101 10.2547 39.7521 10.946 39.7521 11.8125V19H38.076V17.5227H37.9908C37.8771 17.7595 37.6877 18.0128 37.4226 18.2827C37.1574 18.5526 36.8047 18.7822 36.3643 18.9716C35.924 19.161 35.3866 19.2557 34.7521 19.2557ZM35.0078 17.75C35.6707 17.75 36.2294 17.6198 36.6839 17.3594C37.1432 17.099 37.4889 16.7628 37.7209 16.3509C37.9576 15.9389 38.076 15.5057 38.076 15.0511V13.517C38.005 13.6023 37.8487 13.6804 37.6072 13.7514C37.3705 13.8177 37.0959 13.8769 36.7834 13.929C36.4756 13.9763 36.175 14.0189 35.8814 14.0568C35.5926 14.09 35.3582 14.1184 35.1783 14.142C34.7427 14.1989 34.3355 14.2912 33.9567 14.419C33.5826 14.5421 33.2796 14.7292 33.0476 14.9801C32.8203 15.2263 32.7067 15.5625 32.7067 15.9886C32.7067 16.571 32.9221 17.0114 33.353 17.3097C33.7886 17.6032 34.3402 17.75 35.0078 17.75ZM47.2433 19.2273C46.2205 19.2273 45.3398 18.9858 44.6012 18.5028C43.8626 18.0199 43.2944 17.3546 42.8967 16.5071C42.4989 15.6596 42.3001 14.6913 42.3001 13.6023C42.3001 12.4943 42.5037 11.5166 42.9109 10.669C43.3228 9.81676 43.8957 9.15152 44.6296 8.6733C45.3683 8.19034 46.23 7.94886 47.2148 7.94886C47.9819 7.94886 48.6732 8.09091 49.2887 8.375C49.9042 8.65909 50.4085 9.05682 50.8015 9.56818C51.1945 10.0795 51.4383 10.6761 51.533 11.358H49.8569C49.729 10.8608 49.445 10.4205 49.0046 10.0369C48.569 9.64867 47.9819 9.45455 47.2433 9.45455C46.5898 9.45455 46.0169 9.625 45.5245 9.96591C45.0368 10.3021 44.6557 10.7779 44.381 11.3935C44.1112 12.0043 43.9762 12.7216 43.9762 13.5455C43.9762 14.3883 44.1088 15.1222 44.3739 15.7472C44.6438 16.3722 45.0226 16.8575 45.5103 17.2031C46.0027 17.5488 46.5804 17.7216 47.2433 17.7216C47.6789 17.7216 48.0742 17.6458 48.4293 17.4943C48.7844 17.3428 49.0851 17.125 49.3313 16.8409C49.5775 16.5568 49.7527 16.2159 49.8569 15.8182H51.533C51.4383 16.4621 51.204 17.0421 50.8299 17.5582C50.4606 18.0696 49.9705 18.4768 49.3597 18.7798C48.7537 19.0781 48.0482 19.2273 47.2433 19.2273ZM55.5458 15.0227L55.5174 12.9489H55.8583L60.631 8.09091H62.7049L57.6197 13.233H57.4776L55.5458 15.0227ZM53.9833 19V4.45455H55.6594V19H53.9833ZM60.9151 19L56.6538 13.6023L57.8469 12.4375L63.0458 19H60.9151Z" fill="#D0D0D7"/>
<path d="M1.49243 12.913C1.20151 12.7145 1.20151 12.2855 1.49243 12.087L6.96819 8.35075C7.30008 8.12429 7.75 8.36197 7.75 8.76376L7.75 16.2362C7.75 16.638 7.30008 16.8757 6.96819 16.6493L1.49243 12.913Z" stroke="#D0D0D7"/>
</svg>
