<svg width="71" height="24" viewBox="0 0 71 24" fill="none" xmlns="http://www.w3.org/2000/svg">
<path d="M30.4659 9H28.7045C28.6004 8.49337 28.4181 8.0483 28.1577 7.66477C27.902 7.28125 27.5895 6.95928 27.2202 6.69886C26.8556 6.43371 26.4508 6.23485 26.0057 6.10227C25.5606 5.9697 25.0966 5.90341 24.6136 5.90341C23.733 5.90341 22.9351 6.12595 22.2202 6.57102C21.5099 7.0161 20.9441 7.67188 20.5227 8.53835C20.1061 9.40483 19.8977 10.4678 19.8977 11.7273C19.8977 12.9867 20.1061 14.0497 20.5227 14.9162C20.9441 15.7827 21.5099 16.4384 22.2202 16.8835C22.9351 17.3286 23.733 17.5511 24.6136 17.5511C25.0966 17.5511 25.5606 17.4848 26.0057 17.3523C26.4508 17.2197 26.8556 17.0232 27.2202 16.7628C27.5895 16.4976 27.902 16.1733 28.1577 15.7898C28.4181 15.4015 28.6004 14.9564 28.7045 14.4545H30.4659C30.3333 15.1979 30.0919 15.8632 29.7415 16.4503C29.3911 17.0374 28.9555 17.5369 28.4347 17.9489C27.9138 18.3561 27.3291 18.6662 26.6804 18.8793C26.0365 19.0923 25.3475 19.1989 24.6136 19.1989C23.3731 19.1989 22.2699 18.8958 21.304 18.2898C20.3381 17.6837 19.5781 16.822 19.0241 15.7045C18.4702 14.5871 18.1932 13.2614 18.1932 11.7273C18.1932 10.1932 18.4702 8.86742 19.0241 7.75C19.5781 6.63258 20.3381 5.77083 21.304 5.16477C22.2699 4.55871 23.3731 4.25568 24.6136 4.25568C25.3475 4.25568 26.0365 4.36222 26.6804 4.57528C27.3291 4.78835 27.9138 5.10085 28.4347 5.51278C28.9555 5.91998 29.3911 6.41714 29.7415 7.00426C30.0919 7.58665 30.3333 8.25189 30.4659 9ZM34.761 4.45455V19H33.0849V4.45455H34.761ZM42.2628 19.2273C41.2779 19.2273 40.4138 18.9929 39.6705 18.5241C38.9318 18.0554 38.3542 17.3996 37.9375 16.5568C37.5256 15.714 37.3196 14.7292 37.3196 13.6023C37.3196 12.4659 37.5256 11.474 37.9375 10.6264C38.3542 9.77888 38.9318 9.12074 39.6705 8.65199C40.4138 8.18324 41.2779 7.94886 42.2628 7.94886C43.2476 7.94886 44.1094 8.18324 44.848 8.65199C45.5914 9.12074 46.169 9.77888 46.581 10.6264C46.9976 11.474 47.206 12.4659 47.206 13.6023C47.206 14.7292 46.9976 15.714 46.581 16.5568C46.169 17.3996 45.5914 18.0554 44.848 18.5241C44.1094 18.9929 43.2476 19.2273 42.2628 19.2273ZM42.2628 17.7216C43.0109 17.7216 43.6264 17.5298 44.1094 17.1463C44.5923 16.7628 44.9498 16.2585 45.1818 15.6335C45.4138 15.0085 45.5298 14.3314 45.5298 13.6023C45.5298 12.8731 45.4138 12.1937 45.1818 11.5639C44.9498 10.9342 44.5923 10.4252 44.1094 10.0369C43.6264 9.64867 43.0109 9.45455 42.2628 9.45455C41.5147 9.45455 40.8991 9.64867 40.4162 10.0369C39.9332 10.4252 39.5758 10.9342 39.3438 11.5639C39.1117 12.1937 38.9957 12.8731 38.9957 13.6023C38.9957 14.3314 39.1117 15.0085 39.3438 15.6335C39.5758 16.2585 39.9332 16.7628 40.4162 17.1463C40.8991 17.5298 41.5147 17.7216 42.2628 17.7216ZM57.4918 10.5341L55.9862 10.9602C55.8915 10.7093 55.7518 10.4654 55.5671 10.2287C55.3872 9.98722 55.141 9.78835 54.8285 9.6321C54.516 9.47585 54.1159 9.39773 53.6282 9.39773C52.9606 9.39773 52.4042 9.55161 51.9592 9.85938C51.5188 10.1624 51.2987 10.5483 51.2987 11.017C51.2987 11.4337 51.4502 11.7628 51.7532 12.0043C52.0562 12.2457 52.5297 12.447 53.1737 12.608L54.793 13.0057C55.7683 13.2424 56.4951 13.6046 56.9734 14.0923C57.4516 14.5753 57.6907 15.1979 57.6907 15.9602C57.6907 16.5852 57.5108 17.1439 57.1509 17.6364C56.7958 18.1288 56.2987 18.517 55.6594 18.8011C55.0202 19.0852 54.2769 19.2273 53.4293 19.2273C52.3166 19.2273 51.3957 18.9858 50.6665 18.5028C49.9374 18.0199 49.4757 17.3144 49.2816 16.3864L50.8725 15.9886C51.024 16.5758 51.3105 17.0161 51.7319 17.3097C52.158 17.6032 52.7144 17.75 53.4009 17.75C54.1822 17.75 54.8024 17.5843 55.2617 17.2528C55.7257 16.9167 55.9577 16.5142 55.9577 16.0455C55.9577 15.6667 55.8252 15.3494 55.56 15.0938C55.2949 14.8333 54.8877 14.6392 54.3384 14.5114L52.5202 14.0852C51.5212 13.8485 50.7873 13.4815 50.3185 12.9844C49.8545 12.4825 49.6225 11.8551 49.6225 11.1023C49.6225 10.4867 49.7953 9.94223 50.141 9.46875C50.4914 8.99527 50.9672 8.62358 51.5685 8.35369C52.1746 8.08381 52.8612 7.94886 53.6282 7.94886C54.7077 7.94886 55.5553 8.18561 56.1708 8.65909C56.7911 9.13258 57.2314 9.75758 57.4918 10.5341ZM64.7876 19.2273C63.7365 19.2273 62.8298 18.9953 62.0675 18.5312C61.3099 18.0625 60.7251 17.4091 60.3132 16.571C59.906 15.7282 59.7024 14.7481 59.7024 13.6307C59.7024 12.5133 59.906 11.5284 60.3132 10.6761C60.7251 9.81913 61.2981 9.15152 62.032 8.6733C62.7706 8.19034 63.6323 7.94886 64.6172 7.94886C65.1854 7.94886 65.7464 8.04356 66.3004 8.23295C66.8544 8.42235 67.3587 8.73011 67.8132 9.15625C68.2678 9.57765 68.63 10.1364 68.8999 10.8324C69.1697 11.5284 69.3047 12.3854 69.3047 13.4034V14.1136H60.8956V12.6648H67.6001C67.6001 12.0492 67.477 11.5 67.2308 11.017C66.9893 10.5341 66.6437 10.1529 66.1939 9.87358C65.7488 9.59422 65.2232 9.45455 64.6172 9.45455C63.9496 9.45455 63.3719 9.62026 62.8842 9.9517C62.4013 10.2784 62.0296 10.7045 61.7692 11.2301C61.5088 11.7557 61.3786 12.3191 61.3786 12.9205V13.8864C61.3786 14.7102 61.5206 15.4086 61.8047 15.9815C62.0935 16.5497 62.4936 16.983 63.005 17.2812C63.5163 17.5748 64.1106 17.7216 64.7876 17.7216C65.228 17.7216 65.6257 17.66 65.9808 17.5369C66.3407 17.4091 66.6508 17.2197 66.9112 16.9688C67.1716 16.7131 67.3729 16.3958 67.5149 16.017L69.1342 16.4716C68.9638 17.0208 68.6773 17.5038 68.2749 17.9205C67.8724 18.3324 67.3752 18.6544 66.7834 18.8864C66.1915 19.1136 65.5263 19.2273 64.7876 19.2273Z" fill="#D0D0D7"/>
<path d="M1.49243 12.913C1.20151 12.7145 1.20151 12.2855 1.49243 12.087L6.96819 8.35075C7.30008 8.12429 7.75 8.36197 7.75 8.76376L7.75 16.2362C7.75 16.638 7.30008 16.8757 6.96819 16.6493L1.49243 12.913Z" stroke="#D0D0D7"/>
</svg>
