<svg width="51" height="34" viewBox="0 0 51 34" fill="none" xmlns="http://www.w3.org/2000/svg">
<path d="M9.26136 10.5341L7.75568 10.9602C7.66099 10.7093 7.52131 10.4654 7.33665 10.2287C7.15672 9.98722 6.91051 9.78835 6.59801 9.6321C6.28551 9.47585 5.88542 9.39773 5.39773 9.39773C4.73011 9.39773 4.17377 9.55161 3.72869 9.85938C3.28835 10.1624 3.06818 10.5483 3.06818 11.017C3.06818 11.4337 3.2197 11.7628 3.52273 12.0043C3.82576 12.2457 4.29924 12.447 4.94318 12.608L6.5625 13.0057C7.53788 13.2424 8.26468 13.6046 8.7429 14.0923C9.22112 14.5753 9.46023 15.1979 9.46023 15.9602C9.46023 16.5852 9.2803 17.1439 8.92045 17.6364C8.56534 18.1288 8.06818 18.517 7.42898 18.8011C6.78977 19.0852 6.0464 19.2273 5.19886 19.2273C4.08617 19.2273 3.16525 18.9858 2.43608 18.5028C1.70691 18.0199 1.24527 17.3144 1.05114 16.3864L2.64205 15.9886C2.79356 16.5758 3.08002 17.0161 3.50142 17.3097C3.92756 17.6032 4.4839 17.75 5.17045 17.75C5.9517 17.75 6.57197 17.5843 7.03125 17.2528C7.49527 16.9167 7.72727 16.5142 7.72727 16.0455C7.72727 15.6667 7.5947 15.3494 7.32955 15.0938C7.06439 14.8333 6.6572 14.6392 6.10795 14.5114L4.28977 14.0852C3.29072 13.8485 2.55682 13.4815 2.08807 12.9844C1.62405 12.4825 1.39205 11.8551 1.39205 11.1023C1.39205 10.4867 1.56487 9.94223 1.91051 9.46875C2.26089 8.99527 2.73674 8.62358 3.33807 8.35369C3.94413 8.08381 4.63068 7.94886 5.39773 7.94886C6.47727 7.94886 7.32481 8.18561 7.94034 8.65909C8.56061 9.13258 9.00095 9.75758 9.26136 10.5341ZM16.4151 19.2273C15.3924 19.2273 14.5117 18.9858 13.7731 18.5028C13.0344 18.0199 12.4663 17.3546 12.0685 16.5071C11.6708 15.6596 11.4719 14.6913 11.4719 13.6023C11.4719 12.4943 11.6755 11.5166 12.0827 10.669C12.4947 9.81676 13.0676 9.15152 13.8015 8.6733C14.5401 8.19034 15.4019 7.94886 16.3867 7.94886C17.1538 7.94886 17.8451 8.09091 18.4606 8.375C19.0761 8.65909 19.5804 9.05682 19.9734 9.56818C20.3664 10.0795 20.6102 10.6761 20.7049 11.358H19.0288C18.9009 10.8608 18.6168 10.4205 18.1765 10.0369C17.7409 9.64867 17.1538 9.45455 16.4151 9.45455C15.7617 9.45455 15.1888 9.625 14.6964 9.96591C14.2087 10.3021 13.8275 10.7779 13.5529 11.3935C13.283 12.0043 13.1481 12.7216 13.1481 13.5455C13.1481 14.3883 13.2807 15.1222 13.5458 15.7472C13.8157 16.3722 14.1945 16.8575 14.6822 17.2031C15.1746 17.5488 15.7522 17.7216 16.4151 17.7216C16.8507 17.7216 17.2461 17.6458 17.6012 17.4943C17.9563 17.3428 18.257 17.125 18.5032 16.8409C18.7494 16.5568 18.9246 16.2159 19.0288 15.8182H20.7049C20.6102 16.4621 20.3758 17.0421 20.0018 17.5582C19.6325 18.0696 19.1424 18.4768 18.5316 18.7798C17.9255 19.0781 17.2201 19.2273 16.4151 19.2273ZM23.1552 19V8.09091H24.7745V9.73864H24.8881C25.087 9.19886 25.4469 8.76089 25.9677 8.42472C26.4885 8.08854 27.0756 7.92045 27.729 7.92045C27.8522 7.92045 28.006 7.92282 28.1907 7.92756C28.3754 7.93229 28.515 7.93939 28.6097 7.94886V9.65341C28.5529 9.6392 28.4227 9.6179 28.2191 9.58949C28.0202 9.55634 27.8095 9.53977 27.587 9.53977C27.0567 9.53977 26.5832 9.65104 26.1665 9.87358C25.7546 10.0914 25.4279 10.3944 25.1864 10.7827C24.9497 11.1662 24.8313 11.6042 24.8313 12.0966V19H23.1552ZM34.6964 19.2273C33.7115 19.2273 32.8474 18.9929 32.104 18.5241C31.3654 18.0554 30.7878 17.3996 30.3711 16.5568C29.9592 15.714 29.7532 14.7292 29.7532 13.6023C29.7532 12.4659 29.9592 11.474 30.3711 10.6264C30.7878 9.77888 31.3654 9.12074 32.104 8.65199C32.8474 8.18324 33.7115 7.94886 34.6964 7.94886C35.6812 7.94886 36.543 8.18324 37.2816 8.65199C38.025 9.12074 38.6026 9.77888 39.0146 10.6264C39.4312 11.474 39.6396 12.4659 39.6396 13.6023C39.6396 14.7292 39.4312 15.714 39.0146 16.5568C38.6026 17.3996 38.025 18.0554 37.2816 18.5241C36.543 18.9929 35.6812 19.2273 34.6964 19.2273ZM34.6964 17.7216C35.4445 17.7216 36.06 17.5298 36.543 17.1463C37.0259 16.7628 37.3834 16.2585 37.6154 15.6335C37.8474 15.0085 37.9634 14.3314 37.9634 13.6023C37.9634 12.8731 37.8474 12.1937 37.6154 11.5639C37.3834 10.9342 37.0259 10.4252 36.543 10.0369C36.06 9.64867 35.4445 9.45455 34.6964 9.45455C33.9483 9.45455 33.3327 9.64867 32.8498 10.0369C32.3668 10.4252 32.0094 10.9342 31.7773 11.5639C31.5453 12.1937 31.4293 12.8731 31.4293 13.6023C31.4293 14.3314 31.5453 15.0085 31.7773 15.6335C32.0094 16.2585 32.3668 16.7628 32.8498 17.1463C33.3327 17.5298 33.9483 17.7216 34.6964 17.7216ZM43.8743 4.45455V19H42.1982V4.45455H43.8743ZM48.6204 4.45455V19H46.9442V4.45455H48.6204Z" fill="black"/>
<path d="M25.2724 33.2269C25.1067 33.3345 24.8933 33.3345 24.7276 33.2269L17.7108 28.6693C17.2933 28.3982 17.4854 27.75 17.9832 27.75L32.0168 27.75C32.5147 27.75 32.7067 28.3982 32.2892 28.6693L25.2724 33.2269Z" stroke="black"/>
</svg>
