<svg width="1213" height="149" viewBox="0 0 1213 149" fill="none" xmlns="http://www.w3.org/2000/svg">
<path d="M0.884233 146V0.54545H31.6371V64.679H33.5547L85.8984 0.54545H122.759L68.782 65.6733L123.398 146H86.6087L46.7649 86.1989L31.6371 104.665V146H0.884233ZM275.915 148.131C264.693 148.131 255.034 145.858 246.938 141.312C238.888 136.72 232.686 130.233 228.33 121.852C223.973 113.424 221.795 103.457 221.795 91.9517C221.795 80.7301 223.973 70.8816 228.33 62.4062C232.686 53.9309 238.817 47.3258 246.724 42.5909C254.679 37.8561 264.007 35.4886 274.707 35.4886C281.904 35.4886 288.604 36.6487 294.807 38.9688C301.057 41.2415 306.502 44.6742 311.142 49.267C315.83 53.8598 319.475 59.6364 322.08 66.5966C324.684 73.5095 325.986 81.6061 325.986 90.8864V99.196H233.869V80.446H297.506C297.506 76.09 296.559 72.2311 294.665 68.8693C292.771 65.5076 290.143 62.8797 286.781 60.9858C283.467 59.0445 279.608 58.0739 275.205 58.0739C270.612 58.0739 266.54 59.1392 262.989 61.2699C259.485 63.3532 256.739 66.1705 254.75 69.7216C252.761 73.2254 251.743 77.1316 251.696 81.4403V99.267C251.696 104.665 252.69 109.329 254.679 113.259C256.715 117.188 259.58 120.219 263.273 122.349C266.966 124.48 271.346 125.545 276.412 125.545C279.774 125.545 282.851 125.072 285.645 124.125C288.438 123.178 290.83 121.758 292.818 119.864C294.807 117.97 296.322 115.65 297.364 112.903L325.347 114.75C323.926 121.473 321.014 127.345 316.611 132.364C312.255 137.335 306.62 141.218 299.707 144.011C292.842 146.758 284.911 148.131 275.915 148.131ZM532.497 68.017L504.798 69.7216C504.325 67.3542 503.307 65.2235 501.744 63.3295C500.182 61.3883 498.122 59.8494 495.565 58.7131C493.056 57.5294 490.049 56.9375 486.545 56.9375C481.858 56.9375 477.904 57.9318 474.685 59.9205C471.465 61.8617 469.855 64.4659 469.855 67.733C469.855 70.3371 470.897 72.5388 472.98 74.3381C475.063 76.1373 478.638 77.5814 483.705 78.6705L503.449 82.6477C514.055 84.8258 521.962 88.3295 527.17 93.1591C532.379 97.9886 534.983 104.333 534.983 112.193C534.983 119.343 532.876 125.616 528.662 131.014C524.495 136.412 518.766 140.626 511.474 143.656C504.23 146.639 495.873 148.131 486.403 148.131C471.962 148.131 460.456 145.124 451.886 139.111C443.364 133.05 438.368 124.812 436.901 114.395L466.659 112.832C467.559 117.236 469.737 120.598 473.193 122.918C476.65 125.19 481.077 126.327 486.474 126.327C491.777 126.327 496.039 125.309 499.259 123.273C502.526 121.189 504.183 118.514 504.23 115.247C504.183 112.501 503.023 110.252 500.75 108.5C498.477 106.701 494.973 105.328 490.239 104.381L471.347 100.616C460.693 98.4858 452.762 94.7926 447.554 89.5369C442.393 84.2812 439.812 77.5814 439.812 69.4375C439.812 62.4299 441.706 56.393 445.494 51.3267C449.33 46.2604 454.704 42.3542 461.616 39.608C468.577 36.8617 476.721 35.4886 486.048 35.4886C499.827 35.4886 510.67 38.4006 518.577 44.2244C526.531 50.0483 531.171 57.9792 532.497 68.017ZM740.802 68.017L713.103 69.7216C712.629 67.3542 711.612 65.2235 710.049 63.3295C708.487 61.3883 706.427 59.8494 703.87 58.7131C701.361 57.5294 698.354 56.9375 694.85 56.9375C690.163 56.9375 686.209 57.9318 682.989 59.9205C679.77 61.8617 678.16 64.4659 678.16 67.733C678.16 70.3371 679.201 72.5388 681.285 74.3381C683.368 76.1373 686.943 77.5814 692.009 78.6705L711.754 82.6477C722.36 84.8258 730.267 88.3295 735.475 93.1591C740.683 97.9886 743.288 104.333 743.288 112.193C743.288 119.343 741.181 125.616 736.967 131.014C732.8 136.412 727.071 140.626 719.779 143.656C712.535 146.639 704.178 148.131 694.708 148.131C680.267 148.131 668.761 145.124 660.191 139.111C651.668 133.05 646.673 124.812 645.205 114.395L674.964 112.832C675.863 117.236 678.041 120.598 681.498 122.918C684.954 125.19 689.381 126.327 694.779 126.327C700.082 126.327 704.344 125.309 707.563 123.273C710.83 121.189 712.487 118.514 712.535 115.247C712.487 112.501 711.327 110.252 709.055 108.5C706.782 106.701 703.278 105.328 698.543 104.381L679.651 100.616C668.998 98.4858 661.067 94.7926 655.859 89.5369C650.698 84.2812 648.117 77.5814 648.117 69.4375C648.117 62.4299 650.011 56.393 653.799 51.3267C657.634 46.2604 663.008 42.3542 669.921 39.608C676.881 36.8617 685.025 35.4886 694.353 35.4886C708.131 35.4886 718.974 38.4006 726.881 44.2244C734.836 50.0483 739.476 57.9792 740.802 68.017ZM910.47 146H858.908V0.54545H910.896C925.527 0.54545 938.122 3.45738 948.68 9.28125C959.239 15.0578 967.359 23.3674 973.041 34.2102C978.77 45.053 981.635 58.0265 981.635 73.1307C981.635 88.2822 978.77 101.303 973.041 112.193C967.359 123.083 959.192 131.44 948.538 137.264C937.932 143.088 925.243 146 910.47 146ZM889.661 119.651H909.192C918.283 119.651 925.929 118.041 932.132 114.821C938.382 111.554 943.07 106.511 946.195 99.6932C949.367 92.8277 950.953 83.9735 950.953 73.1307C950.953 62.3826 949.367 53.5994 946.195 46.7812C943.07 39.9631 938.406 34.9441 932.203 31.7244C926 28.5047 918.354 26.8949 909.263 26.8949H889.661V119.651ZM1100.42 146V0.54545H1158.65C1169.35 0.54545 1178.28 2.13163 1185.43 5.30398C1192.58 8.47633 1197.95 12.8797 1201.55 18.5142C1205.15 24.1013 1206.95 30.5407 1206.95 37.8324C1206.95 43.5142 1205.81 48.5095 1203.54 52.8182C1201.27 57.0795 1198.14 60.5833 1194.17 63.3295C1190.24 66.0284 1185.74 67.946 1180.67 69.0824V70.5028C1186.21 70.7396 1191.4 72.3021 1196.23 75.1903C1201.1 78.0786 1205.06 82.1269 1208.09 87.3352C1211.12 92.4962 1212.63 98.6515 1212.63 105.801C1212.63 113.519 1210.71 120.408 1206.88 126.469C1203.09 132.482 1197.48 137.241 1190.05 140.744C1182.61 144.248 1173.45 146 1162.56 146H1100.42ZM1131.17 120.858H1156.24C1164.81 120.858 1171.06 119.224 1174.99 115.957C1178.92 112.643 1180.88 108.24 1180.88 102.747C1180.88 98.7225 1179.91 95.1714 1177.97 92.0938C1176.03 89.0161 1173.26 86.6013 1169.66 84.8494C1166.11 83.0975 1161.87 82.2216 1156.95 82.2216H1131.17V120.858ZM1131.17 61.4119H1153.97C1158.18 61.4119 1161.92 60.678 1165.19 59.2102C1168.5 57.6951 1171.11 55.5644 1173 52.8182C1174.94 50.072 1175.91 46.7812 1175.91 42.946C1175.91 37.6903 1174.04 33.4527 1170.3 30.233C1166.61 27.0133 1161.35 25.4034 1154.53 25.4034H1131.17V61.4119Z" fill="black"/>
<path d="M0.884233 146V0.54545H31.6371V64.679H33.5547L85.8984 0.54545H122.759L68.782 65.6733L123.398 146H86.6087L46.7649 86.1989L31.6371 104.665V146H0.884233ZM275.915 148.131C264.693 148.131 255.034 145.858 246.938 141.312C238.888 136.72 232.686 130.233 228.33 121.852C223.973 113.424 221.795 103.457 221.795 91.9517C221.795 80.7301 223.973 70.8816 228.33 62.4062C232.686 53.9309 238.817 47.3258 246.724 42.5909C254.679 37.8561 264.007 35.4886 274.707 35.4886C281.904 35.4886 288.604 36.6487 294.807 38.9688C301.057 41.2415 306.502 44.6742 311.142 49.267C315.83 53.8598 319.475 59.6364 322.08 66.5966C324.684 73.5095 325.986 81.6061 325.986 90.8864V99.196H233.869V80.446H297.506C297.506 76.09 296.559 72.2311 294.665 68.8693C292.771 65.5076 290.143 62.8797 286.781 60.9858C283.467 59.0445 279.608 58.0739 275.205 58.0739C270.612 58.0739 266.54 59.1392 262.989 61.2699C259.485 63.3532 256.739 66.1705 254.75 69.7216C252.761 73.2254 251.743 77.1316 251.696 81.4403V99.267C251.696 104.665 252.69 109.329 254.679 113.259C256.715 117.188 259.58 120.219 263.273 122.349C266.966 124.48 271.346 125.545 276.412 125.545C279.774 125.545 282.851 125.072 285.645 124.125C288.438 123.178 290.83 121.758 292.818 119.864C294.807 117.97 296.322 115.65 297.364 112.903L325.347 114.75C323.926 121.473 321.014 127.345 316.611 132.364C312.255 137.335 306.62 141.218 299.707 144.011C292.842 146.758 284.911 148.131 275.915 148.131ZM532.497 68.017L504.798 69.7216C504.325 67.3542 503.307 65.2235 501.744 63.3295C500.182 61.3883 498.122 59.8494 495.565 58.7131C493.056 57.5294 490.049 56.9375 486.545 56.9375C481.858 56.9375 477.904 57.9318 474.685 59.9205C471.465 61.8617 469.855 64.4659 469.855 67.733C469.855 70.3371 470.897 72.5388 472.98 74.3381C475.063 76.1373 478.638 77.5814 483.705 78.6705L503.449 82.6477C514.055 84.8258 521.962 88.3295 527.17 93.1591C532.379 97.9886 534.983 104.333 534.983 112.193C534.983 119.343 532.876 125.616 528.662 131.014C524.495 136.412 518.766 140.626 511.474 143.656C504.23 146.639 495.873 148.131 486.403 148.131C471.962 148.131 460.456 145.124 451.886 139.111C443.364 133.05 438.368 124.812 436.901 114.395L466.659 112.832C467.559 117.236 469.737 120.598 473.193 122.918C476.65 125.19 481.077 126.327 486.474 126.327C491.777 126.327 496.039 125.309 499.259 123.273C502.526 121.189 504.183 118.514 504.23 115.247C504.183 112.501 503.023 110.252 500.75 108.5C498.477 106.701 494.973 105.328 490.239 104.381L471.347 100.616C460.693 98.4858 452.762 94.7926 447.554 89.5369C442.393 84.2812 439.812 77.5814 439.812 69.4375C439.812 62.4299 441.706 56.393 445.494 51.3267C449.33 46.2604 454.704 42.3542 461.616 39.608C468.577 36.8617 476.721 35.4886 486.048 35.4886C499.827 35.4886 510.67 38.4006 518.577 44.2244C526.531 50.0483 531.171 57.9792 532.497 68.017ZM740.802 68.017L713.103 69.7216C712.629 67.3542 711.612 65.2235 710.049 63.3295C708.487 61.3883 706.427 59.8494 703.87 58.7131C701.361 57.5294 698.354 56.9375 694.85 56.9375C690.163 56.9375 686.209 57.9318 682.989 59.9205C679.77 61.8617 678.16 64.4659 678.16 67.733C678.16 70.3371 679.201 72.5388 681.285 74.3381C683.368 76.1373 686.943 77.5814 692.009 78.6705L711.754 82.6477C722.36 84.8258 730.267 88.3295 735.475 93.1591C740.683 97.9886 743.288 104.333 743.288 112.193C743.288 119.343 741.181 125.616 736.967 131.014C732.8 136.412 727.071 140.626 719.779 143.656C712.535 146.639 704.178 148.131 694.708 148.131C680.267 148.131 668.761 145.124 660.191 139.111C651.668 133.05 646.673 124.812 645.205 114.395L674.964 112.832C675.863 117.236 678.041 120.598 681.498 122.918C684.954 125.19 689.381 126.327 694.779 126.327C700.082 126.327 704.344 125.309 707.563 123.273C710.83 121.189 712.487 118.514 712.535 115.247C712.487 112.501 711.327 110.252 709.055 108.5C706.782 106.701 703.278 105.328 698.543 104.381L679.651 100.616C668.998 98.4858 661.067 94.7926 655.859 89.5369C650.698 84.2812 648.117 77.5814 648.117 69.4375C648.117 62.4299 650.011 56.393 653.799 51.3267C657.634 46.2604 663.008 42.3542 669.921 39.608C676.881 36.8617 685.025 35.4886 694.353 35.4886C708.131 35.4886 718.974 38.4006 726.881 44.2244C734.836 50.0483 739.476 57.9792 740.802 68.017ZM910.47 146H858.908V0.54545H910.896C925.527 0.54545 938.122 3.45738 948.68 9.28125C959.239 15.0578 967.359 23.3674 973.041 34.2102C978.77 45.053 981.635 58.0265 981.635 73.1307C981.635 88.2822 978.77 101.303 973.041 112.193C967.359 123.083 959.192 131.44 948.538 137.264C937.932 143.088 925.243 146 910.47 146ZM889.661 119.651H909.192C918.283 119.651 925.929 118.041 932.132 114.821C938.382 111.554 943.07 106.511 946.195 99.6932C949.367 92.8277 950.953 83.9735 950.953 73.1307C950.953 62.3826 949.367 53.5994 946.195 46.7812C943.07 39.9631 938.406 34.9441 932.203 31.7244C926 28.5047 918.354 26.8949 909.263 26.8949H889.661V119.651ZM1100.42 146V0.54545H1158.65C1169.35 0.54545 1178.28 2.13163 1185.43 5.30398C1192.58 8.47633 1197.95 12.8797 1201.55 18.5142C1205.15 24.1013 1206.95 30.5407 1206.95 37.8324C1206.95 43.5142 1205.81 48.5095 1203.54 52.8182C1201.27 57.0795 1198.14 60.5833 1194.17 63.3295C1190.24 66.0284 1185.74 67.946 1180.67 69.0824V70.5028C1186.21 70.7396 1191.4 72.3021 1196.23 75.1903C1201.1 78.0786 1205.06 82.1269 1208.09 87.3352C1211.12 92.4962 1212.63 98.6515 1212.63 105.801C1212.63 113.519 1210.71 120.408 1206.88 126.469C1203.09 132.482 1197.48 137.241 1190.05 140.744C1182.61 144.248 1173.45 146 1162.56 146H1100.42ZM1131.17 120.858H1156.24C1164.81 120.858 1171.06 119.224 1174.99 115.957C1178.92 112.643 1180.88 108.24 1180.88 102.747C1180.88 98.7225 1179.91 95.1714 1177.97 92.0938C1176.03 89.0161 1173.26 86.6013 1169.66 84.8494C1166.11 83.0975 1161.87 82.2216 1156.95 82.2216H1131.17V120.858ZM1131.17 61.4119H1153.97C1158.18 61.4119 1161.92 60.678 1165.19 59.2102C1168.5 57.6951 1171.11 55.5644 1173 52.8182C1174.94 50.072 1175.91 46.7812 1175.91 42.946C1175.91 37.6903 1174.04 33.4527 1170.3 30.233C1166.61 27.0133 1161.35 25.4034 1154.53 25.4034H1131.17V61.4119Z" fill="black"/>
<path d="M0.884233 146V0.54545H31.6371V64.679H33.5547L85.8984 0.54545H122.759L68.782 65.6733L123.398 146H86.6087L46.7649 86.1989L31.6371 104.665V146H0.884233ZM275.915 148.131C264.693 148.131 255.034 145.858 246.938 141.312C238.888 136.72 232.686 130.233 228.33 121.852C223.973 113.424 221.795 103.457 221.795 91.9517C221.795 80.7301 223.973 70.8816 228.33 62.4062C232.686 53.9309 238.817 47.3258 246.724 42.5909C254.679 37.8561 264.007 35.4886 274.707 35.4886C281.904 35.4886 288.604 36.6487 294.807 38.9688C301.057 41.2415 306.502 44.6742 311.142 49.267C315.83 53.8598 319.475 59.6364 322.08 66.5966C324.684 73.5095 325.986 81.6061 325.986 90.8864V99.196H233.869V80.446H297.506C297.506 76.09 296.559 72.2311 294.665 68.8693C292.771 65.5076 290.143 62.8797 286.781 60.9858C283.467 59.0445 279.608 58.0739 275.205 58.0739C270.612 58.0739 266.54 59.1392 262.989 61.2699C259.485 63.3532 256.739 66.1705 254.75 69.7216C252.761 73.2254 251.743 77.1316 251.696 81.4403V99.267C251.696 104.665 252.69 109.329 254.679 113.259C256.715 117.188 259.58 120.219 263.273 122.349C266.966 124.48 271.346 125.545 276.412 125.545C279.774 125.545 282.851 125.072 285.645 124.125C288.438 123.178 290.83 121.758 292.818 119.864C294.807 117.97 296.322 115.65 297.364 112.903L325.347 114.75C323.926 121.473 321.014 127.345 316.611 132.364C312.255 137.335 306.62 141.218 299.707 144.011C292.842 146.758 284.911 148.131 275.915 148.131ZM532.497 68.017L504.798 69.7216C504.325 67.3542 503.307 65.2235 501.744 63.3295C500.182 61.3883 498.122 59.8494 495.565 58.7131C493.056 57.5294 490.049 56.9375 486.545 56.9375C481.858 56.9375 477.904 57.9318 474.685 59.9205C471.465 61.8617 469.855 64.4659 469.855 67.733C469.855 70.3371 470.897 72.5388 472.98 74.3381C475.063 76.1373 478.638 77.5814 483.705 78.6705L503.449 82.6477C514.055 84.8258 521.962 88.3295 527.17 93.1591C532.379 97.9886 534.983 104.333 534.983 112.193C534.983 119.343 532.876 125.616 528.662 131.014C524.495 136.412 518.766 140.626 511.474 143.656C504.23 146.639 495.873 148.131 486.403 148.131C471.962 148.131 460.456 145.124 451.886 139.111C443.364 133.05 438.368 124.812 436.901 114.395L466.659 112.832C467.559 117.236 469.737 120.598 473.193 122.918C476.65 125.19 481.077 126.327 486.474 126.327C491.777 126.327 496.039 125.309 499.259 123.273C502.526 121.189 504.183 118.514 504.23 115.247C504.183 112.501 503.023 110.252 500.75 108.5C498.477 106.701 494.973 105.328 490.239 104.381L471.347 100.616C460.693 98.4858 452.762 94.7926 447.554 89.5369C442.393 84.2812 439.812 77.5814 439.812 69.4375C439.812 62.4299 441.706 56.393 445.494 51.3267C449.33 46.2604 454.704 42.3542 461.616 39.608C468.577 36.8617 476.721 35.4886 486.048 35.4886C499.827 35.4886 510.67 38.4006 518.577 44.2244C526.531 50.0483 531.171 57.9792 532.497 68.017ZM740.802 68.017L713.103 69.7216C712.629 67.3542 711.612 65.2235 710.049 63.3295C708.487 61.3883 706.427 59.8494 703.87 58.7131C701.361 57.5294 698.354 56.9375 694.85 56.9375C690.163 56.9375 686.209 57.9318 682.989 59.9205C679.77 61.8617 678.16 64.4659 678.16 67.733C678.16 70.3371 679.201 72.5388 681.285 74.3381C683.368 76.1373 686.943 77.5814 692.009 78.6705L711.754 82.6477C722.36 84.8258 730.267 88.3295 735.475 93.1591C740.683 97.9886 743.288 104.333 743.288 112.193C743.288 119.343 741.181 125.616 736.967 131.014C732.8 136.412 727.071 140.626 719.779 143.656C712.535 146.639 704.178 148.131 694.708 148.131C680.267 148.131 668.761 145.124 660.191 139.111C651.668 133.05 646.673 124.812 645.205 114.395L674.964 112.832C675.863 117.236 678.041 120.598 681.498 122.918C684.954 125.19 689.381 126.327 694.779 126.327C700.082 126.327 704.344 125.309 707.563 123.273C710.83 121.189 712.487 118.514 712.535 115.247C712.487 112.501 711.327 110.252 709.055 108.5C706.782 106.701 703.278 105.328 698.543 104.381L679.651 100.616C668.998 98.4858 661.067 94.7926 655.859 89.5369C650.698 84.2812 648.117 77.5814 648.117 69.4375C648.117 62.4299 650.011 56.393 653.799 51.3267C657.634 46.2604 663.008 42.3542 669.921 39.608C676.881 36.8617 685.025 35.4886 694.353 35.4886C708.131 35.4886 718.974 38.4006 726.881 44.2244C734.836 50.0483 739.476 57.9792 740.802 68.017ZM910.47 146H858.908V0.54545H910.896C925.527 0.54545 938.122 3.45738 948.68 9.28125C959.239 15.0578 967.359 23.3674 973.041 34.2102C978.77 45.053 981.635 58.0265 981.635 73.1307C981.635 88.2822 978.77 101.303 973.041 112.193C967.359 123.083 959.192 131.44 948.538 137.264C937.932 143.088 925.243 146 910.47 146ZM889.661 119.651H909.192C918.283 119.651 925.929 118.041 932.132 114.821C938.382 111.554 943.07 106.511 946.195 99.6932C949.367 92.8277 950.953 83.9735 950.953 73.1307C950.953 62.3826 949.367 53.5994 946.195 46.7812C943.07 39.9631 938.406 34.9441 932.203 31.7244C926 28.5047 918.354 26.8949 909.263 26.8949H889.661V119.651ZM1100.42 146V0.54545H1158.65C1169.35 0.54545 1178.28 2.13163 1185.43 5.30398C1192.58 8.47633 1197.95 12.8797 1201.55 18.5142C1205.15 24.1013 1206.95 30.5407 1206.95 37.8324C1206.95 43.5142 1205.81 48.5095 1203.54 52.8182C1201.27 57.0795 1198.14 60.5833 1194.17 63.3295C1190.24 66.0284 1185.74 67.946 1180.67 69.0824V70.5028C1186.21 70.7396 1191.4 72.3021 1196.23 75.1903C1201.1 78.0786 1205.06 82.1269 1208.09 87.3352C1211.12 92.4962 1212.63 98.6515 1212.63 105.801C1212.63 113.519 1210.71 120.408 1206.88 126.469C1203.09 132.482 1197.48 137.241 1190.05 140.744C1182.61 144.248 1173.45 146 1162.56 146H1100.42ZM1131.17 120.858H1156.24C1164.81 120.858 1171.06 119.224 1174.99 115.957C1178.92 112.643 1180.88 108.24 1180.88 102.747C1180.88 98.7225 1179.91 95.1714 1177.97 92.0938C1176.03 89.0161 1173.26 86.6013 1169.66 84.8494C1166.11 83.0975 1161.87 82.2216 1156.95 82.2216H1131.17V120.858ZM1131.17 61.4119H1153.97C1158.18 61.4119 1161.92 60.678 1165.19 59.2102C1168.5 57.6951 1171.11 55.5644 1173 52.8182C1174.94 50.072 1175.91 46.7812 1175.91 42.946C1175.91 37.6903 1174.04 33.4527 1170.3 30.233C1166.61 27.0133 1161.35 25.4034 1154.53 25.4034H1131.17V61.4119Z" fill="#F1F1F2"/>
</svg>
